<svg preserveAspectRatio="none" width="100%" height="100%" overflow="visible" style="display: block;" viewBox="0 0 260.461 260.461" fill="none" xmlns="http://www.w3.org/2000/svg">
<g id="Group">
<path id="Vector" fill-rule="evenodd" clip-rule="evenodd" d="M66.0454 0H0.930223V65.1152C0.930223 98.2744 25.7161 125.645 57.7715 129.71C25.2666 133.358 5.49605e-06 160.936 2.84628e-06 194.416L0 259.531H65.1152C98.2744 259.531 125.645 234.744 129.71 202.689C133.358 235.195 160.936 260.461 194.416 260.461H259.531V195.346C259.531 162.186 234.744 134.816 202.689 130.751C235.195 127.103 260.461 99.5246 260.461 66.0454V0.930217L195.346 0.930215C162.186 0.930212 134.816 25.7161 130.751 57.7715C127.103 25.2666 99.5246 0 66.0454 0Z" fill="var(--fill-0, #02ACC4)"/>
</g>
</svg>
