<svg preserveAspectRatio="none" width="100%" height="100%" overflow="visible" style="display: block;" viewBox="0 0 20 20" fill="none" xmlns="http://www.w3.org/2000/svg">
<g id="bard-fill" clip-path="url(#clip0_0_24)">
<path id="Vector" d="M8.84436 14.8289L9.57569 13.1537C10.2266 11.663 11.3981 10.4764 12.8594 9.82769L14.8725 8.9341C15.5125 8.65002 15.5125 7.71892 14.8725 7.43483L12.9223 6.56914C11.4234 5.90379 10.2309 4.6732 9.59111 3.13164L8.85027 1.34646C8.57536 0.683991 7.66001 0.683993 7.38511 1.34646L6.64425 3.13162C6.0045 4.6732 4.81196 5.90379 3.31306 6.56914L1.36284 7.43483C0.722804 7.71892 0.722803 8.65002 1.36284 8.9341L3.37594 9.82769C4.83726 10.4764 6.00878 11.663 6.65965 13.1537L7.39102 14.8289C7.67216 15.4727 8.56319 15.4727 8.84436 14.8289ZM16.1669 18.9074L16.3725 18.436C16.7392 17.5955 17.3996 16.9263 18.2236 16.5602L18.8573 16.2786C19.2 16.1264 19.2 15.6283 18.8573 15.476L18.2591 15.2102C17.4139 14.8347 16.7416 14.1407 16.3812 13.2716L16.17 12.7622C16.0228 12.4072 15.5319 12.4072 15.3847 12.7622L15.1735 13.2716C14.8132 14.1407 14.1409 14.8347 13.2957 15.2102L12.6974 15.476C12.3548 15.6283 12.3548 16.1264 12.6974 16.2786L13.3311 16.5602C14.1552 16.9263 14.8155 17.5955 15.1822 18.436L15.3879 18.9074C15.5384 19.2525 16.0163 19.2525 16.1669 18.9074Z" fill="var(--fill-0, white)"/>
</g>
<defs>
<clipPath id="clip0_0_24">
<rect width="20" height="20" fill="white"/>
</clipPath>
</defs>
</svg>
