<svg preserveAspectRatio="none" width="100%" height="100%" overflow="visible" style="display: block;" viewBox="0 0 22.8198 22.8198" fill="none" xmlns="http://www.w3.org/2000/svg">
<g id="bard-fill">
<path id="Vector" d="M10.0909 16.9197L10.9253 15.0083C11.668 13.3075 13.0047 11.9535 14.6721 11.2134L16.969 10.1938C17.6992 9.86969 17.6992 8.80731 16.969 8.48317L14.7438 7.49542C13.0335 6.73626 11.6729 5.33216 10.9429 3.57326L10.0976 1.53639C9.78397 0.780513 8.73957 0.780515 8.4259 1.53639L7.58059 3.57324C6.85064 5.33216 5.48997 6.73626 3.77973 7.49542L1.55454 8.48317C0.824267 8.80731 0.824266 9.86969 1.55454 10.1938L3.85147 11.2134C5.51883 11.9535 6.85553 13.3075 7.59816 15.0083L8.43265 16.9197C8.75342 17.6543 9.77009 17.6543 10.0909 16.9197ZM18.4458 21.5733L18.6805 21.0354C19.0988 20.0764 19.8524 19.3128 20.7925 18.8951L21.5156 18.5738C21.9066 18.4001 21.9066 17.8318 21.5156 17.6581L20.8331 17.3548C19.8686 16.9263 19.1016 16.1345 18.6904 15.1429L18.4494 14.5616C18.2814 14.1566 17.7214 14.1566 17.5534 14.5616L17.3124 15.1429C16.9013 16.1345 16.1343 16.9263 15.1698 17.3548L14.4872 17.6581C14.0963 17.8318 14.0963 18.4001 14.4872 18.5738L15.2102 18.8951C16.1505 19.3128 16.904 20.0764 17.3223 21.0354L17.5571 21.5733C17.7288 21.9671 18.274 21.9671 18.4458 21.5733Z" fill="var(--fill-0, black)"/>
</g>
</svg>
