<svg preserveAspectRatio="none" width="100%" height="100%" overflow="visible" style="display: block;" viewBox="0 0 22.8198 22.8198" fill="none" xmlns="http://www.w3.org/2000/svg">
<g id="bard-fill">
<path id="Vector" d="M10.0909 16.9199L10.9253 15.0086C11.668 13.3077 13.0047 11.9538 14.6721 11.2136L16.969 10.1941C17.6992 9.86993 17.6992 8.80756 16.969 8.48341L14.7438 7.49566C13.0335 6.7365 11.6729 5.33241 10.9429 3.5735L10.0976 1.53663C9.78397 0.780757 8.73957 0.780759 8.4259 1.53663L7.58059 3.57348C6.85064 5.33241 5.48997 6.7365 3.77973 7.49566L1.55454 8.48341C0.824267 8.80756 0.824266 9.86993 1.55454 10.1941L3.85147 11.2136C5.51883 11.9538 6.85553 13.3077 7.59816 15.0086L8.43265 16.9199C8.75342 17.6545 9.77009 17.6545 10.0909 16.9199ZM18.4458 21.5736L18.6805 21.0357C19.0988 20.0767 19.8524 19.3131 20.7925 18.8954L21.5156 18.5741C21.9066 18.4004 21.9066 17.8321 21.5156 17.6583L20.8331 17.355C19.8686 16.9266 19.1016 16.1347 18.6904 15.1431L18.4494 14.5619C18.2814 14.1568 17.7214 14.1568 17.5534 14.5619L17.3124 15.1431C16.9013 16.1347 16.1343 16.9266 15.1698 17.355L14.4872 17.6583C14.0963 17.8321 14.0963 18.4004 14.4872 18.5741L15.2102 18.8954C16.1505 19.3131 16.904 20.0767 17.3223 21.0357L17.5571 21.5736C17.7288 21.9673 18.274 21.9673 18.4458 21.5736Z" fill="var(--fill-0, black)"/>
</g>
</svg>
