<svg preserveAspectRatio="none" width="100%" height="100%" overflow="visible" style="display: block;" viewBox="0 0 303.999 303.999" fill="none" xmlns="http://www.w3.org/2000/svg">
<g id="Group">
<path id="Vector" d="M251.133 291.758C251.741 298.499 234.889 307.093 229.587 302.884C183.932 266.652 120.107 266.643 74.4421 302.855C69.1379 307.061 52.2662 298.454 52.872 291.712C55.6572 260.713 43.2858 248.342 12.2869 251.127C5.54434 251.733 -3.06286 234.86 1.14366 229.556C37.3557 183.894 37.3456 120.077 1.11392 74.4253C-3.09414 69.1232 5.49923 52.2693 12.2409 52.8764C43.2736 55.6709 55.6587 43.3008 52.872 12.287C52.2661 5.54449 69.1379 -3.06279 74.4421 1.14356C120.107 37.3563 183.932 37.3464 229.587 1.11383C234.889 -3.09404 251.741 5.49934 251.133 12.241C248.336 43.2878 260.718 55.6717 291.758 52.8765C298.499 52.2695 307.093 69.122 302.886 74.4244C266.663 120.076 266.652 183.896 302.857 229.556C307.063 234.861 298.455 251.733 291.712 251.127C260.706 248.342 248.338 260.727 251.133 291.758Z" fill="var(--fill-0, #FF779F)"/>
</g>
</svg>
