<svg preserveAspectRatio="none" width="100%" height="100%" overflow="visible" style="display: block;" viewBox="0 0 438.805 490.001" fill="none" xmlns="http://www.w3.org/2000/svg">
<g id="Group">
<path id="Vector" d="M219.402 46.3263C219.402 -86.0572 302.124 101.601 269.093 158.921C302.183 101.601 506.092 79.415 391.422 145.621C506.092 79.415 384.934 245.005 318.755 245.005C384.934 245.005 506.092 410.505 391.422 344.387C506.092 410.593 302.183 388.408 269.093 331.088C302.183 388.408 219.402 576.066 219.402 443.683C219.402 576.066 136.652 388.408 169.711 331.088C136.622 388.408 -67.2876 410.593 47.3825 344.387C-67.2876 410.593 53.8715 245.005 120.078 245.005C53.8715 245.005 -67.2876 79.5027 47.3825 145.621C-67.2876 79.415 136.622 101.601 169.711 158.921C136.652 101.542 219.402 -86.0572 219.402 46.3263Z" fill="var(--fill-0, #F2D4ED)"/>
</g>
</svg>
